<?xml version="1.0" encoding="utf-8"?>
<!-- Generator: Adobe Illustrator 28.1.0, SVG Export Plug-In . SVG Version: 6.00 Build 0)  -->
<svg version="1.1" id="레이어_1" xmlns="http://www.w3.org/2000/svg" xmlns:xlink="http://www.w3.org/1999/xlink" x="0px"
	 y="0px" viewBox="0 0 165 288" style="enable-background:new 0 0 165 288;" xml:space="preserve">
<style type="text/css">
	.st0{fill:#6F6F6F;}
</style>
<path class="st0" d="M143.5,0c-5.7,0-11.2,2.3-15.2,6.3L6.3,128.8c-4,4.1-6.3,9.6-6.3,15.3c0,5.7,2.3,11.2,6.3,15.3l121.9,122.5
	c4.1,3.9,9.5,6.1,15.2,6.1c5.7,0,11.1-2.3,15.1-6.3c4-4,6.3-9.4,6.3-15.1s-2.1-11.1-6-15.2L52,144.1L158.7,37
	c4-4.1,6.3-9.6,6.3-15.3c0-5.7-2.3-11.2-6.3-15.3C154.6,2.3,149.2,0,143.5,0z"/>
</svg>
