<?xml version="1.0" encoding="UTF-8"?><svg id="_레이어_1" xmlns="http://www.w3.org/2000/svg" viewBox="0 0 1.6 1.6"><defs><style>.cls-1{fill:#fff;stroke-width:0px;}</style></defs><g id="D_-_112_Computer_finance_graph_money_payments"><path class="cls-1" d="M1.6,0H0s0,0,0,0v1.2s0,0,0,0h.5v.3h-.1s0,0,0,0,0,0,0,0h.7s0,0,0,0,0,0,0,0h-.1v-.3h.5s0,0,0,0V0s0,0,0,0ZM1.6,0v.8H0V0h1.5ZM1,1.5h-.3v-.3h.3v.3ZM1.6,1.2H0v-.3h1.5v.3Z"/><path class="cls-1" d="M.8,1.2c0,0,.1,0,.1-.1s0-.1-.1-.1-.1,0-.1.1,0,.1.1.1ZM.8,1s0,0,0,0,0,0,0,0,0,0,0,0,0,0,0,0Z"/><path class="cls-1" d="M.8.8c.2,0,.3-.2.3-.3s-.2-.3-.3-.3-.3.2-.3.3.2.3.3.3ZM1.1.4h-.2v-.2c.1,0,.2.1.2.2ZM.8.2v.3s0,0,0,0h.3c0,.1-.1.2-.3.2s-.3-.1-.3-.3c0-.1.1-.3.2-.3Z"/></g></svg>