<svg width="165" height="288" viewBox="0 0 165 288" fill="none" xmlns="http://www.w3.org/2000/svg">
<path d="M6.30958 6.33932C2.26956 10.3996 1.89675e-07 15.9058 2.58139e-07 21.6471C3.26602e-07 27.3883 2.26956 32.8945 6.30958 36.9548L112.983 144.131L6.30959 251.307C2.38406 255.39 0.211921 260.859 0.261021 266.536C0.310121 272.213 2.57653 277.644 6.57209 281.658C10.5677 285.673 15.9727 287.95 21.6231 287.999C27.2734 288.048 32.717 285.866 36.7814 281.922L158.69 159.438C162.73 155.378 165 149.872 165 144.131C165 138.389 162.73 132.883 158.69 128.823L36.7814 6.33932C32.7402 2.28026 27.2598 -3.2507e-07 21.5455 -2.56928e-07C15.8312 -1.88785e-07 10.3508 2.28026 6.30958 6.33932Z" fill="#6F6F6F"/>
</svg>
